<svg height="512pt" viewBox="-88 0 512 512.00076" width="512pt" xmlns="http://www.w3.org/2000/svg"><path d="m208.554688 280.277344c4.804687 11.535156 22.640624 5.121094 19.023437-6.8125-3.953125-13.027344-24.238281-5.894532-19.023437 6.8125zm0 0"/><path d="m127.066406 272.511719c-4.960937-12.109375-23.761718-4.328125-18.742187 7.761719 5.019531 12.089843 23.777343 4.3125 18.742187-7.761719zm0 0"/><path d="m196.601562 361.617188-22.347656-17.070313c-3.636718-2.777344-8.683594-2.777344-12.320312 0l-22.351563 17.070313c-3.691406 2.820312-4.996093 7.792968-3.167969 12.0625l22.351563 52.160156c1.597656 3.730468 5.265625 6.148437 9.324219 6.148437 4.0625 0 7.730468-2.417969 9.328125-6.148437l22.351562-52.160156c1.832031-4.269532.527344-9.242188-3.167969-12.0625zm-28.507812 34.460937-9.910156-23.128906 9.910156-7.570313 9.910156 7.570313zm0 0"/><path d="m322.136719 172.324219c-4.226563 0-8.136719 2.746093-9.554688 6.730469-1.515625 4.253906.027344 9.144531 3.738281 11.730468 7.484376 5.210938 17.875-1.796875 15.667969-10.726562-1.109375-4.476563-5.226562-7.734375-9.851562-7.734375zm0 0"/><path d="m322.132812 512c13.03125 0 13.050782-20.296875 0-20.296875h-38.554687c67.015625-83.496094 68.765625-217.648437 6.425781-304.132813v-81.054687l21.984375-10.058594v42.636719c0 13.027344 20.292969 13.046875 20.292969 0v-58.441406c0-3.914063-2.363281-7.601563-5.921875-9.230469l-154.042969-70.5c-2.683594-1.230469-5.765625-1.230469-8.445312 0l-154.046875 70.5c-7.632813 3.496094-7.71875 14.921875 0 18.457031l36.355469 16.636719v81.03125c-62.460938 86.683594-60.691407 220.535156 6.425781 304.160156h-42.824219c-13.03125 0-13.050781 20.292969 0 20.292969zm-52.421874-330.332031-91.472657 46.453125v-70.449219l91.472657-41.867187zm-50.773438 54.472656c22.191406 0 40.25 18.058594 40.25 40.25 0 22.195313-18.058594 40.253906-40.25 40.253906-22.195312 0-40.25-18.058593-40.25-40.253906 0-22.191406 18.054688-40.25 40.25-40.25zm-60.992188 40.25c0 22.195313-18.058593 40.253906-40.25 40.253906-22.195312 0-40.253906-18.058593-40.253906-40.253906 0-22.191406 18.058594-40.25 40.253906-40.25 21.8125 0 40.25 18.375 40.25 40.25zm10.148438-255.082031 129.65625 59.34375-129.65625 59.34375-129.660156-59.34375zm-101.617188 163.976562v-69.480468l91.46875 41.867187v70.949219zm4.160157 273.140625c-.207031 7.117188-.757813 14.242188-1.640625 21.308594-29.976563-36.964844-47.449219-89.390625-47.449219-144.3125 0-5.636719.179687-11.289063.542969-16.917969 18.234375 19.140625 30.980468 43.148438 38.839844 68.269532 7.230468 23.109374 10.40625 47.460937 9.707031 71.652343zm174.515625-6.601562c0 13.339843 1.058594 26.71875 3.242187 39.882812h-14.050781v-13.402343c0-12.996094-20.296875-13.023438-20.296875 0v13.402343h-13.457031v-13.402343c0-12.996094-20.296875-13.023438-20.296875 0v13.402343h-24.988281v-13.402343c0-12.996094-20.296876-13.023438-20.296876 0v13.402343h-13.457031v-13.402343c0-12.996094-20.296875-13.023438-20.296875 0v13.402343h-13.464844c11.550782-69.855469-7.167968-151.125-62.835937-198.402343 5.429687-33.128907 17.199219-63.652344 34.273437-88.996094l34.660157 16.421875c-21.582031 9.265625-36.738281 30.726562-36.738281 55.660156 0 33.386719 27.160156 60.546875 60.542968 60.546875 21.152344 0 39.792969-10.90625 50.625-27.386719 10.828125 16.480469 29.46875 27.386719 50.621094 27.386719 33.382812 0 60.546875-27.160156 60.546875-60.546875 0-26.027344-16.511719-48.269531-39.609375-56.808594l35.273438-17.914062c18.066406 25.847656 30.453124 57.28125 36.082031 91.636719-45.335938 38.496093-66.078125 100.355468-66.078125 158.519531zm21.855468 26.414062c-4.246093-36.117187.167969-73.503906 13.921876-107.246093 7.835937-19.246094 18.792968-37.402344 33.164062-52.488282.359375 5.628906.542969 11.277344.542969 16.917969 0 54.921875-17.472657 107.347656-47.449219 144.3125-.0625-.5-.121094-.996094-.179688-1.496094zm0 0"/></svg>